<svg width="150" height="150" viewBox="0 0 150 150" fill="none" xmlns="http://www.w3.org/2000/svg">
<g clip-path="url(#clip0_3370_28258)">
<path d="M105.987 23.33H54.7906V8.74883C54.7906 3.91706 58.7076 0 63.5394 0H97.2385C102.07 0 105.987 3.91706 105.987 8.74883V23.33Z" fill="url(#paint0_linear_3370_28258)"/>
<path d="M92.8322 23.33H41.6355V8.74883C41.6355 3.91706 45.5525 0 50.3843 0H84.0834C88.9151 0 92.8322 3.91706 92.8322 8.74883V23.33Z" fill="url(#paint1_linear_3370_28258)"/>
<path d="M78.8986 16.6065V8.74883C78.8986 3.91706 74.9815 0 70.1498 0H36.4507C31.6189 0 27.7018 3.91706 27.7018 8.74883V103.215C27.7018 110.098 33.2821 115.679 40.1657 115.679H135.642C142.525 115.679 148.106 110.098 148.106 103.215V32.8777C148.106 25.9941 142.525 20.4138 135.642 20.4138H82.706C80.6033 20.4138 78.8986 18.7091 78.8986 16.6065Z" fill="url(#paint2_linear_3370_28258)"/>
<path d="M112.106 37.5603H109.104C107.382 37.5603 105.987 36.1648 105.987 34.4433V31.4415C105.987 29.7201 107.382 28.3245 109.104 28.3245H112.106C113.827 28.3245 115.223 29.7201 115.223 31.4415V34.4433C115.223 36.1648 113.827 37.5603 112.106 37.5603Z" fill="url(#paint3_linear_3370_28258)"/>
<path d="M123.882 37.5603H120.88C119.159 37.5603 117.763 36.1648 117.763 34.4433V31.4415C117.763 29.7201 119.159 28.3245 120.88 28.3245H123.882C125.604 28.3245 126.999 29.7201 126.999 31.4415V34.4433C126.999 36.1648 125.604 37.5603 123.882 37.5603Z" fill="url(#paint4_linear_3370_28258)"/>
<path d="M135.657 37.5603H132.656C130.934 37.5603 129.539 36.1648 129.539 34.4433V31.4415C129.539 29.7201 130.934 28.3245 132.656 28.3245H135.657C137.379 28.3245 138.775 29.7201 138.775 31.4415V34.4433C138.775 36.1648 137.379 37.5603 135.657 37.5603Z" fill="url(#paint5_linear_3370_28258)"/>
<path d="M135.642 115.679C142.525 115.679 148.106 110.099 148.106 103.216V57.825L132.118 41.8371C129.833 39.2265 126.479 37.5753 122.737 37.5753H108.119L91.1389 20.4144H82.7057H27.7018V103.084C27.7018 110.04 33.341 115.679 40.2971 115.679H135.642V115.679Z" fill="url(#paint6_linear_3370_28258)"/>
<path d="M27.7018 89.4315V103.214C27.7018 110.098 33.2821 115.678 40.1657 115.678H135.642C142.525 115.678 148.106 110.098 148.106 103.214V89.4315H27.7018Z" fill="url(#paint7_linear_3370_28258)"/>
<path d="M93.0826 40.4901H41.8861V25.909C41.8861 21.0772 45.8032 17.1602 50.635 17.1602H84.3341C89.1658 17.1602 93.0829 21.0772 93.0829 25.909V40.4901H93.0826Z" fill="url(#paint8_linear_3370_28258)"/>
<path d="M79.9285 40.4901H28.732V25.909C28.732 21.0772 32.6491 17.1602 37.4808 17.1602H71.1799C76.0117 17.1602 79.9288 21.0772 79.9288 25.909V40.4901H79.9285Z" fill="url(#paint9_linear_3370_28258)"/>
<path d="M65.9948 33.7666V25.909C65.9948 21.0772 62.0777 17.1602 57.246 17.1602H23.5469C18.7151 17.1602 14.798 21.0772 14.798 25.909V120.375C14.798 127.258 20.3783 132.839 27.2619 132.839H122.738C129.622 132.839 135.202 127.258 135.202 120.375V50.0378C135.202 43.1543 129.622 37.574 122.738 37.574H69.8021C67.6995 37.574 65.9948 35.8693 65.9948 33.7666Z" fill="url(#paint10_linear_3370_28258)"/>
<path d="M99.2018 54.7204H96.2C94.4785 54.7204 93.0829 53.3248 93.0829 51.6033V48.6016C93.0829 46.8801 94.4785 45.4845 96.2 45.4845H99.2018C100.923 45.4845 102.319 46.8801 102.319 48.6016V51.6033C102.319 53.3248 100.924 54.7204 99.2018 54.7204Z" fill="url(#paint11_linear_3370_28258)"/>
<path d="M110.978 54.7204H107.977C106.255 54.7204 104.86 53.3248 104.86 51.6033V48.6016C104.86 46.8801 106.255 45.4845 107.977 45.4845H110.978C112.7 45.4845 114.095 46.8801 114.095 48.6016V51.6033C114.095 53.3248 112.7 54.7204 110.978 54.7204Z" fill="url(#paint12_linear_3370_28258)"/>
<path d="M122.754 54.7204H119.752C118.03 54.7204 116.635 53.3248 116.635 51.6033V48.6016C116.635 46.8801 118.03 45.4845 119.752 45.4845H122.754C124.475 45.4845 125.871 46.8801 125.871 48.6016V51.6033C125.871 53.3248 124.475 54.7204 122.754 54.7204Z" fill="url(#paint13_linear_3370_28258)"/>
<path d="M122.738 132.839C129.622 132.839 135.202 127.259 135.202 120.376V74.9852L119.214 58.9973C116.929 56.3867 113.575 54.7355 109.834 54.7355H95.2151L78.2354 37.575H69.8022H14.7984V120.244C14.7984 127.2 20.4375 132.839 27.3937 132.839H122.738Z" fill="url(#paint14_linear_3370_28258)"/>
<path d="M14.7984 106.592V120.374C14.7984 127.258 20.3787 132.838 27.2622 132.838H122.738C129.622 132.838 135.202 127.258 135.202 120.374V106.592H14.7984Z" fill="url(#paint15_linear_3370_28258)"/>
<path d="M80.1778 57.6523H28.9813V43.0711C28.9813 38.2393 32.8984 34.3223 37.7301 34.3223H71.4292C76.261 34.3223 80.1781 38.2393 80.1781 43.0711V57.6523H80.1778Z" fill="url(#paint16_linear_3370_28258)"/>
<path d="M67.0237 57.6523H15.8272V43.0711C15.8272 38.2393 19.7443 34.3223 24.576 34.3223H58.2751C63.1069 34.3223 67.024 38.2393 67.024 43.0711V57.6523H67.0237Z" fill="url(#paint17_linear_3370_28258)"/>
<path d="M53.0901 50.9284V43.0707C53.0901 38.239 49.173 34.3219 44.3412 34.3219H10.6424C5.81064 34.3219 1.89359 38.239 1.89359 43.0707V137.537C1.89359 144.42 7.47359 150 14.3574 150H109.834C116.717 150 122.297 144.42 122.297 137.537V67.1996C122.297 60.316 116.717 54.7357 109.834 54.7357H56.8974C54.7948 54.7357 53.0901 53.0313 53.0901 50.9284Z" fill="url(#paint18_linear_3370_28258)"/>
<path d="M86.2969 71.8825H83.2952C81.5737 71.8825 80.1781 70.4869 80.1781 68.7654V65.7637C80.1781 64.0422 81.5737 62.6466 83.2952 62.6466H86.2969C88.0184 62.6466 89.414 64.0422 89.414 65.7637V68.7651C89.4143 70.4866 88.0187 71.8825 86.2969 71.8825Z" fill="url(#paint19_linear_3370_28258)"/>
<path d="M98.0736 71.8825H95.0718C93.3503 71.8825 91.9547 70.4869 91.9547 68.7654V65.7637C91.9547 64.0422 93.3503 62.6466 95.0718 62.6466H98.0736C99.795 62.6466 101.191 64.0422 101.191 65.7637V68.7651C101.191 70.4866 99.795 71.8825 98.0736 71.8825Z" fill="url(#paint20_linear_3370_28258)"/>
<path d="M109.849 71.8825H106.847C105.126 71.8825 103.73 70.4869 103.73 68.7654V65.7637C103.73 64.0422 105.126 62.6466 106.847 62.6466H109.849C111.57 62.6466 112.966 64.0422 112.966 65.7637V68.7651C112.966 70.4866 111.571 71.8825 109.849 71.8825Z" fill="url(#paint21_linear_3370_28258)"/>
<path d="M1.89359 123.753V137.536C1.89359 144.42 7.47359 150 14.3574 150H109.834C116.717 150 122.297 144.42 122.297 137.536V123.753H1.89359Z" fill="url(#paint22_linear_3370_28258)"/>
</g>
<defs>
<linearGradient id="paint0_linear_3370_28258" x1="80.3891" y1="4.86059" x2="80.3891" y2="23.3415" gradientUnits="userSpaceOnUse">
<stop stop-color="#66BB00"/>
<stop offset="1" stop-color="#0B799D"/>
</linearGradient>
<linearGradient id="paint1_linear_3370_28258" x1="67.234" y1="4.86059" x2="67.234" y2="23.3415" gradientUnits="userSpaceOnUse">
<stop stop-color="#90CC1C"/>
<stop offset="1" stop-color="#66BB00"/>
</linearGradient>
<linearGradient id="paint2_linear_3370_28258" x1="67.9821" y1="5.99206" x2="121.894" y2="173.921" gradientUnits="userSpaceOnUse">
<stop stop-color="#B9DD39"/>
<stop offset="1" stop-color="#0B799D"/>
</linearGradient>
<linearGradient id="paint3_linear_3370_28258" x1="109.578" y1="32.1606" x2="113.798" y2="35.3756" gradientUnits="userSpaceOnUse">
<stop stop-color="#FDBF00"/>
<stop offset="1" stop-color="#FF9100"/>
</linearGradient>
<linearGradient id="paint4_linear_3370_28258" x1="121.355" y1="32.1606" x2="125.575" y2="35.3756" gradientUnits="userSpaceOnUse">
<stop stop-color="#FDBF00"/>
<stop offset="1" stop-color="#FF9100"/>
</linearGradient>
<linearGradient id="paint5_linear_3370_28258" x1="133.13" y1="32.1606" x2="137.35" y2="35.3756" gradientUnits="userSpaceOnUse">
<stop stop-color="#FDBF00"/>
<stop offset="1" stop-color="#FF9100"/>
</linearGradient>
<linearGradient id="paint6_linear_3370_28258" x1="85.8963" y1="68.165" x2="130.96" y2="-48.1068" gradientUnits="userSpaceOnUse">
<stop stop-color="#0B799D" stop-opacity="0"/>
<stop offset="0.3645" stop-color="#096380" stop-opacity="0.365"/>
<stop offset="0.76" stop-color="#084F67" stop-opacity="0.76"/>
<stop offset="1" stop-color="#07485E"/>
</linearGradient>
<linearGradient id="paint7_linear_3370_28258" x1="87.9039" y1="100.449" x2="87.9039" y2="124.76" gradientUnits="userSpaceOnUse">
<stop stop-color="#0B799D" stop-opacity="0"/>
<stop offset="0.3645" stop-color="#096380" stop-opacity="0.365"/>
<stop offset="0.76" stop-color="#084F67" stop-opacity="0.76"/>
<stop offset="1" stop-color="#07485E"/>
</linearGradient>
<linearGradient id="paint8_linear_3370_28258" x1="67.4844" y1="22.0204" x2="67.4844" y2="40.5016" gradientUnits="userSpaceOnUse">
<stop stop-color="#0095FF"/>
<stop offset="1" stop-color="#0B799D"/>
</linearGradient>
<linearGradient id="paint9_linear_3370_28258" x1="54.3302" y1="22.0204" x2="54.3302" y2="40.5016" gradientUnits="userSpaceOnUse">
<stop stop-color="#48B2E3"/>
<stop offset="1" stop-color="#0095FF"/>
</linearGradient>
<linearGradient id="paint10_linear_3370_28258" x1="23.2548" y1="33.461" x2="100.579" y2="110.785" gradientUnits="userSpaceOnUse">
<stop stop-color="#76E2F8"/>
<stop offset="1" stop-color="#48B2E3"/>
</linearGradient>
<linearGradient id="paint11_linear_3370_28258" x1="96.6747" y1="49.3204" x2="100.895" y2="52.5357" gradientUnits="userSpaceOnUse">
<stop stop-color="#EDF5FF"/>
<stop offset="1" stop-color="#D5E8FE"/>
</linearGradient>
<linearGradient id="paint12_linear_3370_28258" x1="108.451" y1="49.3204" x2="112.671" y2="52.5357" gradientUnits="userSpaceOnUse">
<stop stop-color="#EDF5FF"/>
<stop offset="1" stop-color="#D5E8FE"/>
</linearGradient>
<linearGradient id="paint13_linear_3370_28258" x1="120.227" y1="49.3204" x2="124.447" y2="52.5357" gradientUnits="userSpaceOnUse">
<stop stop-color="#EDF5FF"/>
<stop offset="1" stop-color="#D5E8FE"/>
</linearGradient>
<linearGradient id="paint14_linear_3370_28258" x1="73.5772" y1="134.039" x2="76.1007" y2="36.5394" gradientUnits="userSpaceOnUse">
<stop stop-color="#B5DBFF" stop-opacity="0"/>
<stop offset="0.1734" stop-color="#8FC5E9" stop-opacity="0.173"/>
<stop offset="0.4541" stop-color="#56A4C8" stop-opacity="0.454"/>
<stop offset="0.6955" stop-color="#2D8DB1" stop-opacity="0.696"/>
<stop offset="0.8853" stop-color="#147EA2" stop-opacity="0.885"/>
<stop offset="1" stop-color="#0B799D"/>
</linearGradient>
<linearGradient id="paint15_linear_3370_28258" x1="75.0001" y1="117.609" x2="75.0001" y2="141.919" gradientUnits="userSpaceOnUse">
<stop stop-color="#B5DBFF" stop-opacity="0"/>
<stop offset="0.1734" stop-color="#8FC5E9" stop-opacity="0.173"/>
<stop offset="0.4541" stop-color="#56A4C8" stop-opacity="0.454"/>
<stop offset="0.6955" stop-color="#2D8DB1" stop-opacity="0.696"/>
<stop offset="0.8853" stop-color="#147EA2" stop-opacity="0.885"/>
<stop offset="1" stop-color="#0B799D"/>
</linearGradient>
<linearGradient id="paint16_linear_3370_28258" x1="54.5795" y1="39.1826" x2="54.5795" y2="57.6634" gradientUnits="userSpaceOnUse">
<stop stop-color="#FF9100"/>
<stop offset="1" stop-color="#E63950"/>
</linearGradient>
<linearGradient id="paint17_linear_3370_28258" x1="41.4254" y1="39.1826" x2="41.4254" y2="57.6634" gradientUnits="userSpaceOnUse">
<stop stop-color="#FDBF00"/>
<stop offset="1" stop-color="#FF9100"/>
</linearGradient>
<linearGradient id="paint18_linear_3370_28258" x1="10.3501" y1="50.6228" x2="87.6739" y2="127.947" gradientUnits="userSpaceOnUse">
<stop stop-color="#FFDA2D"/>
<stop offset="1" stop-color="#FDBF00"/>
</linearGradient>
<linearGradient id="paint19_linear_3370_28258" x1="83.7702" y1="66.4825" x2="87.9899" y2="69.6975" gradientUnits="userSpaceOnUse">
<stop stop-color="#FF637B"/>
<stop offset="1" stop-color="#E63950"/>
</linearGradient>
<linearGradient id="paint20_linear_3370_28258" x1="95.5465" y1="66.4825" x2="99.7662" y2="69.6975" gradientUnits="userSpaceOnUse">
<stop stop-color="#FF637B"/>
<stop offset="1" stop-color="#E63950"/>
</linearGradient>
<linearGradient id="paint21_linear_3370_28258" x1="107.322" y1="66.4825" x2="111.542" y2="69.6975" gradientUnits="userSpaceOnUse">
<stop stop-color="#FF637B"/>
<stop offset="1" stop-color="#E63950"/>
</linearGradient>
<linearGradient id="paint22_linear_3370_28258" x1="62.0953" y1="134.77" x2="62.0953" y2="159.081" gradientUnits="userSpaceOnUse">
<stop stop-color="#FF9100" stop-opacity="0"/>
<stop offset="1" stop-color="#FF9100"/>
</linearGradient>
<clipPath id="clip0_3370_28258">
<rect width="150" height="150" fill="white"/>
</clipPath>
</defs>
</svg>
