<svg width="150" height="150" viewBox="0 0 150 150" fill="none" xmlns="http://www.w3.org/2000/svg">
<g clip-path="url(#clip0_3370_28309)">
<path d="M86.3955 150H9.84814C4.43991 150 0.0554962 145.616 0.0554962 140.208V31.4019C0.0554962 25.9937 4.43991 21.6093 9.84814 21.6093H86.3955C91.8037 21.6093 96.1881 25.9937 96.1881 31.4019V140.208C96.1881 145.616 91.8037 150 86.3955 150Z" fill="url(#paint0_linear_3370_28309)"/>
<path d="M82.0185 150.001H14.225C9.27737 150.001 5.26678 145.99 5.26678 141.043V38.4465C5.26678 33.4989 9.27767 29.4883 14.225 29.4883H82.0185C86.9662 29.4883 90.9768 33.4992 90.9768 38.4465V141.043C90.9768 145.99 86.9659 150.001 82.0185 150.001Z" fill="url(#paint1_linear_3370_28309)"/>
<path d="M10.4502 107.804C15.3452 102.909 23.2817 102.909 28.1767 107.804L38.9134 118.541C43.8084 123.436 43.8084 131.372 38.9134 136.267C34.0184 141.162 26.082 141.162 21.187 136.267L10.4502 125.531C5.55521 120.635 5.55521 112.699 10.4502 107.804Z" fill="url(#paint2_linear_3370_28309)"/>
<path d="M21.1877 136.267L16.0856 131.165C19.1541 128.726 22.3159 125.911 25.4374 122.79C28.5589 119.669 31.3733 116.507 33.8127 113.438L38.9147 118.54C43.8091 123.435 43.8077 131.371 38.9133 136.266C36.4662 138.713 33.258 139.937 30.0497 139.937C26.8415 139.937 23.6347 138.715 21.1877 136.267Z" fill="url(#paint3_linear_3370_28309)"/>
<path d="M82.4462 100.153C89.0059 102.365 92.53 109.476 90.3177 116.035L85.4653 130.423C83.253 136.983 76.1421 140.507 69.5824 138.295C63.0227 136.082 59.4986 128.971 61.7109 122.412L66.5633 108.024C68.7756 101.465 75.8868 97.9402 82.4462 100.153Z" fill="url(#paint4_linear_3370_28309)"/>
<path d="M61.7087 122.413L64.0146 115.576C67.5631 117.243 71.4887 118.826 75.6717 120.236C79.8546 121.647 83.9373 122.765 87.7699 123.588L85.464 130.425C83.252 136.984 76.1402 140.507 69.5814 138.295C66.302 137.189 63.7805 134.858 62.3558 131.983C60.9311 129.109 60.6028 125.693 61.7087 122.413Z" fill="url(#paint5_linear_3370_28309)"/>
<path d="M61.7087 122.413L64.0146 115.576C67.5631 117.243 71.4887 118.826 75.6717 120.236C79.8546 121.647 83.9373 122.765 87.7699 123.588L85.464 130.425C83.252 136.984 76.1402 140.507 69.5814 138.295C66.302 137.189 63.7805 134.858 62.3558 131.983C60.9311 129.109 60.6028 125.693 61.7087 122.413Z" fill="url(#paint6_linear_3370_28309)"/>
<path d="M32.7375 129.161C30.287 122.686 33.549 115.451 40.0231 113.001L54.2237 107.626C60.6981 105.175 67.9331 108.437 70.3837 114.911C72.8343 121.386 69.5723 128.621 63.0981 131.071L48.8975 136.446C42.4231 138.897 35.1881 135.635 32.7375 129.161Z" fill="url(#paint7_linear_3370_28309)"/>
<path d="M63.0997 131.07L56.3514 133.624C55.3888 129.824 54.1226 125.785 52.56 121.656C50.9973 117.528 49.2717 113.663 47.477 110.178L54.2253 107.623C60.6988 105.173 67.9335 108.437 70.3838 114.91C71.6088 118.147 71.4064 121.575 70.0879 124.5C68.7691 127.424 66.3364 129.845 63.0997 131.07Z" fill="url(#paint8_linear_3370_28309)"/>
<path d="M76.5139 111.946C71.6188 116.841 63.6824 116.841 58.7874 111.946L48.0506 101.21C43.1556 96.3147 43.1556 88.3783 48.0506 83.4833C52.9456 78.5883 60.8821 78.5883 65.7771 83.4833L76.5139 94.22C81.4089 99.115 81.4089 107.051 76.5139 111.946Z" fill="url(#paint9_linear_3370_28309)"/>
<path d="M65.7768 83.4834L70.8789 88.5855C67.8104 91.0249 64.6486 93.8393 61.5271 96.9608C58.4057 100.082 55.5913 103.244 53.1518 106.313L48.0498 101.21C43.1554 96.3161 43.1568 88.3793 48.0513 83.4852C50.4983 81.0381 53.7065 79.8137 56.9148 79.8137C60.1233 79.8134 63.3298 81.0361 65.7768 83.4834Z" fill="url(#paint10_linear_3370_28309)"/>
<path d="M12.1286 48.1479C15.7198 42.2296 23.4286 40.3429 29.3469 43.934L42.328 51.8105C48.2463 55.4017 50.133 63.1105 46.5419 69.0287C42.9507 74.947 35.2419 76.8337 29.3236 73.2425L16.3424 65.3661C10.4239 61.7752 8.53745 54.0661 12.1286 48.1479Z" fill="url(#paint11_linear_3370_28309)"/>
<path d="M29.324 73.2435L23.1555 69.5006C25.5564 66.4014 27.9581 62.9161 30.2481 59.1423C32.5381 55.3685 34.5202 51.6285 36.1602 48.0676L42.3287 51.8106C48.2464 55.4012 50.1314 63.1109 46.5408 69.0282C44.7455 71.987 41.9205 73.9388 38.804 74.7014C35.6881 75.4644 32.2828 75.0391 29.324 73.2435Z" fill="url(#paint12_linear_3370_28309)"/>
<path d="M66.1625 82.4799C59.6028 80.2676 56.0787 73.1567 58.2911 66.597L63.1434 52.2093C65.3558 45.6496 72.4667 42.1255 79.0264 44.3379C85.5861 46.5502 89.1102 53.6611 86.8978 60.2208L82.0455 74.6085C79.8331 81.1679 72.7219 84.692 66.1625 82.4799Z" fill="url(#paint13_linear_3370_28309)"/>
<path d="M86.8984 60.2201L84.5925 67.0572C81.044 65.391 77.1184 63.8078 72.9354 62.3972C68.7525 60.9866 64.6701 59.8686 60.8372 59.0457L63.1431 52.2087C65.3552 45.6498 72.4669 42.1269 79.0257 44.3389C82.3052 45.4448 84.8266 47.7757 86.2513 50.6501C87.6761 53.5245 88.0043 56.9407 86.8984 60.2201Z" fill="url(#paint14_linear_3370_28309)"/>
<path d="M86.8984 60.2201L84.5925 67.0572C81.044 65.391 77.1184 63.8078 72.9354 62.3972C68.7525 60.9866 64.6701 59.8686 60.8372 59.0457L63.1431 52.2087C65.3552 45.6498 72.4669 42.1269 79.0257 44.3389C82.3052 45.4448 84.8266 47.7757 86.2513 50.6501C87.6761 53.5245 88.0043 56.9407 86.8984 60.2201Z" fill="url(#paint15_linear_3370_28309)"/>
<path d="M52.7859 92.367C55.2365 98.8414 51.9744 106.076 45.5003 108.527L31.2997 113.902C24.8253 116.353 17.5903 113.09 15.1397 106.616C12.6891 100.142 15.9512 92.907 22.4253 90.4564L36.6259 85.0814C43.1003 82.6308 50.3353 85.8929 52.7859 92.367Z" fill="url(#paint16_linear_3370_28309)"/>
<path d="M22.4244 90.4573L29.1727 87.9032C30.1353 91.7032 31.4015 95.7423 32.9641 99.8709C34.5268 103.999 36.2524 107.865 38.0471 111.35L31.2988 113.904C24.8253 116.354 17.5906 113.091 15.1403 106.617C13.9153 103.38 14.1177 99.9523 15.4362 97.0276C16.755 94.1032 19.1877 91.6823 22.4244 90.4573Z" fill="url(#paint17_linear_3370_28309)"/>
<path d="M0.0554962 122.035V140.208C0.0554962 145.616 4.43991 150 9.84814 150H86.3955C91.8037 150 96.1881 145.616 96.1881 140.208V122.035H0.0554962Z" fill="url(#paint18_linear_3370_28309)"/>
<path d="M60.868 47.522C60.0574 46.0438 58.4871 45.4305 56.6821 45.4305H39.5621C36.9271 45.4305 35.1806 47.177 35.1806 49.812V68.0232H16.9695C14.3345 68.0232 12.588 69.7697 12.588 72.4047V89.5247C12.588 91.3297 13.2009 92.8997 14.6795 93.7103L72.0803 150.001H86.3962C91.8045 150.001 96.1889 145.616 96.1889 140.208V82.0491L60.868 47.522Z" fill="url(#paint19_linear_3370_28309)"/>
<path d="M79.2748 94.2958H61.453V112.118C61.453 114.753 59.3169 116.889 56.6819 116.889H39.5619C36.9269 116.889 34.7907 114.753 34.7907 112.118V94.2958H16.9692C14.3342 94.2958 12.1981 92.1596 12.1981 89.5246V72.4046C12.1981 69.7696 14.3342 67.6335 16.9692 67.6335H34.791V49.8117C34.791 47.1767 36.9272 45.0405 39.5622 45.0405H56.6822C59.3172 45.0405 61.4533 47.1767 61.4533 49.8117V67.6335H79.2751C81.9101 67.6335 84.0463 69.7696 84.0463 72.4046V89.5246C84.046 92.1596 81.9101 94.2958 79.2748 94.2958Z" fill="url(#paint20_linear_3370_28309)"/>
<path d="M56.682 116.889H48.122V45.0405H56.682C59.317 45.0405 61.4532 47.1767 61.4532 49.8117V112.118C61.4532 114.753 59.317 116.889 56.682 116.889Z" fill="url(#paint21_linear_3370_28309)"/>
<path d="M84.046 72.4048V80.9648H12.1981V72.4048C12.1981 69.7698 14.3342 67.6337 16.9692 67.6337H79.2752C81.9102 67.6337 84.046 69.7698 84.046 72.4048Z" fill="url(#paint22_linear_3370_28309)"/>
<path d="M86.3957 21.6096H31.8572C20.9998 21.6096 12.1981 30.4114 12.1981 41.2687V150.001H86.3957C91.8039 150.001 96.1883 145.616 96.1883 140.208V31.402C96.1883 25.9937 91.8039 21.6096 86.3957 21.6096Z" fill="url(#paint23_linear_3370_28309)"/>
<path d="M86.3951 21.6099H9.84778C9.58396 21.6099 9.32366 21.6234 9.06543 21.6437L52.6266 65.2049L96.1878 108.766V31.4025C96.1878 25.994 91.8037 21.6099 86.3951 21.6099Z" fill="url(#paint24_linear_3370_28309)"/>
<path d="M81.943 24.0547H14.3003C10.3556 24.0547 7.1577 20.8568 7.1577 16.9121V7.14265C7.1577 3.19794 10.3556 0 14.3003 0H81.9427C85.8874 0 89.0853 3.19794 89.0853 7.14265V16.9121C89.0856 20.8568 85.8877 24.0547 81.943 24.0547Z" fill="url(#paint25_linear_3370_28309)"/>
<path d="M70.2306 24.0547H26.012C22.7497 24.0547 20.105 21.41 20.105 18.1476V5.90706C20.105 2.64471 22.7497 0 26.012 0H70.2306C73.4929 0 76.1376 2.64471 76.1376 5.90706V18.1476C76.1376 21.41 73.4929 24.0547 70.2306 24.0547Z" fill="url(#paint26_linear_3370_28309)"/>
<path d="M40.0196 24.0547H56.224C58.3557 24.0547 60.0837 22.3265 60.0837 20.195V3.85971C60.084 1.72824 58.3557 0 56.224 0H40.0196C37.8878 0 36.1599 1.72824 36.1599 3.85971V20.1947C36.1599 22.3268 37.8878 24.0547 40.0196 24.0547Z" fill="url(#paint27_linear_3370_28309)"/>
<path d="M7.1577 12.0266V16.9113C7.1577 20.856 10.3556 24.054 14.3003 24.054H81.9427C85.8874 24.054 89.0853 20.856 89.0853 16.9113V12.0266H7.1577Z" fill="url(#paint28_linear_3370_28309)"/>
<path d="M94.0188 126.826C95.4247 117.24 104.335 110.61 113.92 112.015L134.945 115.099C144.53 116.505 151.161 125.415 149.755 135.001C148.349 144.586 139.439 151.217 129.854 149.811L108.829 146.727C99.2435 145.321 92.6129 136.411 94.0188 126.826Z" fill="url(#paint29_linear_3370_28309)"/>
<path d="M129.855 149.812L119.864 148.347C121.271 143.044 122.469 137.243 123.366 131.131C124.262 125.018 124.78 119.117 124.955 113.634L134.946 115.099C144.53 116.505 151.16 125.417 149.754 135.001C149.051 139.793 146.472 143.848 142.87 146.528C139.268 149.209 134.647 150.515 129.855 149.812Z" fill="url(#paint30_linear_3370_28309)"/>
<path d="M147.329 141.668L118.337 112.675L118.319 112.66L113.92 112.015C104.335 110.61 95.4248 117.24 94.0189 126.826C92.613 136.411 99.2439 145.321 108.829 146.727L129.854 149.811C136.996 150.858 143.762 147.442 147.329 141.668Z" fill="url(#paint31_linear_3370_28309)"/>
<path d="M76.2841 145.933C68.8423 139.729 67.8382 128.668 74.0414 121.226L87.6473 104.904C93.8506 97.4623 104.912 96.4585 112.353 102.661C119.795 108.865 120.799 119.926 114.596 127.367L100.99 143.69C94.787 151.131 83.7259 152.136 76.2841 145.933Z" fill="url(#paint32_linear_3370_28309)"/>
<path d="M114.598 127.367L108.132 135.123C104.344 131.155 100.021 127.104 95.276 123.149C90.5307 119.193 85.768 115.671 81.1824 112.659L87.648 104.902C93.8504 97.4619 104.912 96.4598 112.353 102.662C116.073 105.763 118.185 110.08 118.591 114.551C118.997 119.022 117.699 123.646 114.598 127.367Z" fill="url(#paint33_linear_3370_28309)"/>
</g>
<defs>
<linearGradient id="paint0_linear_3370_28309" x1="0.0554962" y1="85.8049" x2="96.1881" y2="85.8049" gradientUnits="userSpaceOnUse">
<stop stop-color="#EDF5FF"/>
<stop offset="1" stop-color="#D5E8FE"/>
</linearGradient>
<linearGradient id="paint1_linear_3370_28309" x1="35.9462" y1="80.6703" x2="-78.0506" y2="-4.28936" gradientUnits="userSpaceOnUse">
<stop stop-color="#07485E" stop-opacity="0"/>
<stop offset="0.2708" stop-color="#074459" stop-opacity="0.271"/>
<stop offset="0.597" stop-color="#05394A" stop-opacity="0.597"/>
<stop offset="0.9505" stop-color="#032632" stop-opacity="0.951"/>
<stop offset="1" stop-color="#03232E"/>
</linearGradient>
<linearGradient id="paint2_linear_3370_28309" x1="28.1038" y1="118.521" x2="21.3759" y2="125.249" gradientUnits="userSpaceOnUse">
<stop stop-color="#EDF5FF"/>
<stop offset="1" stop-color="#D5E8FE"/>
</linearGradient>
<linearGradient id="paint3_linear_3370_28309" x1="36.2817" y1="124.839" x2="30.1889" y2="130.932" gradientUnits="userSpaceOnUse">
<stop stop-color="#9AE1D3"/>
<stop offset="1" stop-color="#80D1C1"/>
</linearGradient>
<linearGradient id="paint4_linear_3370_28309" x1="80.9887" y1="121.451" x2="71.9677" y2="118.406" gradientUnits="userSpaceOnUse">
<stop stop-color="#EDF5FF"/>
<stop offset="1" stop-color="#D5E8FE"/>
</linearGradient>
<linearGradient id="paint5_linear_3370_28309" x1="78.9536" y1="131.591" x2="70.7837" y2="128.833" gradientUnits="userSpaceOnUse">
<stop stop-color="#9AE1D3"/>
<stop offset="1" stop-color="#80D1C1"/>
</linearGradient>
<linearGradient id="paint6_linear_3370_28309" x1="74.5552" y1="128.455" x2="61.6499" y2="119.851" gradientUnits="userSpaceOnUse">
<stop stop-color="#0B799D" stop-opacity="0"/>
<stop offset="0.1739" stop-color="#117D9E" stop-opacity="0.174"/>
<stop offset="0.414" stop-color="#2389A0" stop-opacity="0.414"/>
<stop offset="0.6928" stop-color="#409CA3" stop-opacity="0.693"/>
<stop offset="0.9986" stop-color="#69B7A8" stop-opacity="0.999"/>
<stop offset="1" stop-color="#69B7A8"/>
</linearGradient>
<linearGradient id="paint7_linear_3370_28309" x1="49.6618" y1="117.554" x2="53.0304" y2="126.452" gradientUnits="userSpaceOnUse">
<stop stop-color="#EDF5FF"/>
<stop offset="1" stop-color="#D5E8FE"/>
</linearGradient>
<linearGradient id="paint8_linear_3370_28309" x1="58.7816" y1="112.694" x2="61.8325" y2="120.752" gradientUnits="userSpaceOnUse">
<stop stop-color="#9AE1D3"/>
<stop offset="1" stop-color="#80D1C1"/>
</linearGradient>
<linearGradient id="paint9_linear_3370_28309" x1="58.8701" y1="101.226" x2="65.5978" y2="94.4987" gradientUnits="userSpaceOnUse">
<stop stop-color="#EDF5FF"/>
<stop offset="1" stop-color="#D5E8FE"/>
</linearGradient>
<linearGradient id="paint10_linear_3370_28309" x1="50.6924" y1="94.9089" x2="56.7853" y2="88.816" gradientUnits="userSpaceOnUse">
<stop stop-color="#9AE1D3"/>
<stop offset="1" stop-color="#80D1C1"/>
</linearGradient>
<linearGradient id="paint11_linear_3370_28309" x1="32.2231" y1="54.3212" x2="27.2842" y2="62.4575" gradientUnits="userSpaceOnUse">
<stop stop-color="#EDF5FF"/>
<stop offset="1" stop-color="#D5E8FE"/>
</linearGradient>
<linearGradient id="paint12_linear_3370_28309" x1="41.6704" y1="58.5175" x2="37.1977" y2="65.8858" gradientUnits="userSpaceOnUse">
<stop stop-color="#9AE1D3"/>
<stop offset="1" stop-color="#80D1C1"/>
</linearGradient>
<linearGradient id="paint13_linear_3370_28309" x1="67.6227" y1="61.1719" x2="76.6441" y2="64.2171" gradientUnits="userSpaceOnUse">
<stop stop-color="#EDF5FF"/>
<stop offset="1" stop-color="#D5E8FE"/>
</linearGradient>
<linearGradient id="paint14_linear_3370_28309" x1="69.6566" y1="51.0326" x2="77.8264" y2="53.7904" gradientUnits="userSpaceOnUse">
<stop stop-color="#9AE1D3"/>
<stop offset="1" stop-color="#80D1C1"/>
</linearGradient>
<linearGradient id="paint15_linear_3370_28309" x1="74.0516" y1="54.1786" x2="86.9569" y2="62.7822" gradientUnits="userSpaceOnUse">
<stop stop-color="#0B799D" stop-opacity="0"/>
<stop offset="0.1739" stop-color="#117D9E" stop-opacity="0.174"/>
<stop offset="0.414" stop-color="#2389A0" stop-opacity="0.414"/>
<stop offset="0.6928" stop-color="#409CA3" stop-opacity="0.693"/>
<stop offset="0.9986" stop-color="#69B7A8" stop-opacity="0.999"/>
<stop offset="1" stop-color="#69B7A8"/>
</linearGradient>
<linearGradient id="paint16_linear_3370_28309" x1="35.8791" y1="103.974" x2="32.5104" y2="95.0771" gradientUnits="userSpaceOnUse">
<stop stop-color="#EDF5FF"/>
<stop offset="1" stop-color="#D5E8FE"/>
</linearGradient>
<linearGradient id="paint17_linear_3370_28309" x1="26.7598" y1="108.834" x2="23.7091" y2="100.776" gradientUnits="userSpaceOnUse">
<stop stop-color="#9AE1D3"/>
<stop offset="1" stop-color="#80D1C1"/>
</linearGradient>
<linearGradient id="paint18_linear_3370_28309" x1="48.122" y1="132.507" x2="48.122" y2="157.333" gradientUnits="userSpaceOnUse">
<stop stop-color="#07485E" stop-opacity="0"/>
<stop offset="0.2708" stop-color="#074459" stop-opacity="0.271"/>
<stop offset="0.597" stop-color="#05394A" stop-opacity="0.597"/>
<stop offset="0.9505" stop-color="#032632" stop-opacity="0.951"/>
<stop offset="1" stop-color="#03232E"/>
</linearGradient>
<linearGradient id="paint19_linear_3370_28309" x1="85.4868" y1="118.039" x2="-14.2958" y2="18.2567" gradientUnits="userSpaceOnUse">
<stop stop-color="#07485E" stop-opacity="0"/>
<stop offset="0.2708" stop-color="#074459" stop-opacity="0.271"/>
<stop offset="0.597" stop-color="#05394A" stop-opacity="0.597"/>
<stop offset="0.9505" stop-color="#032632" stop-opacity="0.951"/>
<stop offset="1" stop-color="#03232E"/>
</linearGradient>
<linearGradient id="paint20_linear_3370_28309" x1="28.2801" y1="61.1229" x2="74.1324" y2="106.975" gradientUnits="userSpaceOnUse">
<stop stop-color="#FF637B"/>
<stop offset="1" stop-color="#E63950"/>
</linearGradient>
<linearGradient id="paint21_linear_3370_28309" x1="52.8826" y1="80.9543" x2="14.0246" y2="96.2567" gradientUnits="userSpaceOnUse">
<stop stop-color="#E63950" stop-opacity="0"/>
<stop offset="0.0467" stop-color="#E4354B" stop-opacity="0.047"/>
<stop offset="0.4669" stop-color="#D31822" stop-opacity="0.467"/>
<stop offset="0.7991" stop-color="#C90709" stop-opacity="0.799"/>
<stop offset="1" stop-color="#C50000"/>
</linearGradient>
<linearGradient id="paint22_linear_3370_28309" x1="48.0322" y1="75.5692" x2="49.7516" y2="94.8263" gradientUnits="userSpaceOnUse">
<stop stop-color="#E63950" stop-opacity="0"/>
<stop offset="0.0467" stop-color="#E4354B" stop-opacity="0.047"/>
<stop offset="0.4669" stop-color="#D31822" stop-opacity="0.467"/>
<stop offset="0.7991" stop-color="#C90709" stop-opacity="0.799"/>
<stop offset="1" stop-color="#C50000"/>
</linearGradient>
<linearGradient id="paint23_linear_3370_28309" x1="39.8819" y1="78.559" x2="-11.2878" y2="44.5287" gradientUnits="userSpaceOnUse">
<stop stop-color="white" stop-opacity="0"/>
<stop offset="1" stop-color="white"/>
</linearGradient>
<linearGradient id="paint24_linear_3370_28309" x1="52.6266" y1="71.8522" x2="52.6266" y2="-37.6666" gradientUnits="userSpaceOnUse">
<stop stop-color="#07485E" stop-opacity="0"/>
<stop offset="0.2708" stop-color="#074459" stop-opacity="0.271"/>
<stop offset="0.597" stop-color="#05394A" stop-opacity="0.597"/>
<stop offset="0.9505" stop-color="#032632" stop-opacity="0.951"/>
<stop offset="1" stop-color="#03232E"/>
</linearGradient>
<linearGradient id="paint25_linear_3370_28309" x1="48.1215" y1="3.50324" x2="48.1215" y2="24.1" gradientUnits="userSpaceOnUse">
<stop stop-color="#9AE1D3"/>
<stop offset="1" stop-color="#80D1C1"/>
</linearGradient>
<linearGradient id="paint26_linear_3370_28309" x1="45.3814" y1="0.123529" x2="54.5103" y2="39.7871" gradientUnits="userSpaceOnUse">
<stop stop-color="#0B799D" stop-opacity="0"/>
<stop offset="0.1739" stop-color="#117D9E" stop-opacity="0.174"/>
<stop offset="0.414" stop-color="#2389A0" stop-opacity="0.414"/>
<stop offset="0.6928" stop-color="#409CA3" stop-opacity="0.693"/>
<stop offset="0.9986" stop-color="#69B7A8" stop-opacity="0.999"/>
<stop offset="1" stop-color="#69B7A8"/>
</linearGradient>
<linearGradient id="paint27_linear_3370_28309" x1="50.3416" y1="2.38265" x2="42.9451" y2="34.5188" gradientUnits="userSpaceOnUse">
<stop stop-color="#0B799D" stop-opacity="0"/>
<stop offset="0.1739" stop-color="#117D9E" stop-opacity="0.174"/>
<stop offset="0.414" stop-color="#2389A0" stop-opacity="0.414"/>
<stop offset="0.6928" stop-color="#409CA3" stop-opacity="0.693"/>
<stop offset="0.9986" stop-color="#69B7A8" stop-opacity="0.999"/>
<stop offset="1" stop-color="#69B7A8"/>
</linearGradient>
<linearGradient id="paint28_linear_3370_28309" x1="48.1215" y1="14.7943" x2="48.1215" y2="24.0807" gradientUnits="userSpaceOnUse">
<stop stop-color="#0B799D" stop-opacity="0"/>
<stop offset="0.1739" stop-color="#117D9E" stop-opacity="0.174"/>
<stop offset="0.414" stop-color="#2389A0" stop-opacity="0.414"/>
<stop offset="0.6928" stop-color="#409CA3" stop-opacity="0.693"/>
<stop offset="0.9986" stop-color="#69B7A8" stop-opacity="0.999"/>
<stop offset="1" stop-color="#69B7A8"/>
</linearGradient>
<linearGradient id="paint29_linear_3370_28309" x1="122.779" y1="123.908" x2="120.848" y2="137.079" gradientUnits="userSpaceOnUse">
<stop stop-color="#EDF5FF"/>
<stop offset="1" stop-color="#D5E8FE"/>
</linearGradient>
<linearGradient id="paint30_linear_3370_28309" x1="138.1" y1="121.359" x2="135.053" y2="134.085" gradientUnits="userSpaceOnUse">
<stop stop-color="#9AE1D3"/>
<stop offset="1" stop-color="#80D1C1"/>
</linearGradient>
<linearGradient id="paint31_linear_3370_28309" x1="128.633" y1="147.486" x2="89.7374" y2="106.619" gradientUnits="userSpaceOnUse">
<stop stop-color="#07485E" stop-opacity="0"/>
<stop offset="0.2708" stop-color="#074459" stop-opacity="0.271"/>
<stop offset="0.597" stop-color="#05394A" stop-opacity="0.597"/>
<stop offset="0.9505" stop-color="#032632" stop-opacity="0.951"/>
<stop offset="1" stop-color="#03232E"/>
</linearGradient>
<linearGradient id="paint32_linear_3370_28309" x1="88.8246" y1="119.834" x2="99.0523" y2="128.358" gradientUnits="userSpaceOnUse">
<stop stop-color="#EDF5FF"/>
<stop offset="1" stop-color="#D5E8FE"/>
</linearGradient>
<linearGradient id="paint33_linear_3370_28309" x1="95.0298" y1="105.871" x2="108.998" y2="119.839" gradientUnits="userSpaceOnUse">
<stop stop-color="#9AE1D3"/>
<stop offset="1" stop-color="#80D1C1"/>
</linearGradient>
<clipPath id="clip0_3370_28309">
<rect width="150" height="150" fill="white"/>
</clipPath>
</defs>
</svg>
