<svg width="151" height="151" viewBox="0 0 151 151" fill="none" xmlns="http://www.w3.org/2000/svg">
<g clip-path="url(#clip0_6634_11057)">
<path d="M79.8273 50.8124C58.5894 50.8124 41.4594 65.3533 34.9838 83.8474C33.5579 87.9201 33.1094 92.3786 33.1094 96.9424C33.1094 122.744 54.0258 143.66 79.8273 143.66H103.786C106.503 143.66 109.161 143.415 111.751 142.97L125.859 149.978C129.366 151.72 133.403 148.862 132.925 144.975L131.631 134.454C143.083 125.94 150.504 112.309 150.504 96.9424C150.504 71.5745 130.284 50.9292 105.083 50.2421L79.8273 50.8124Z" fill="url(#paint0_linear_6634_11057)"/>
<path d="M131.633 134.453L132.925 144.974C133.404 148.862 129.366 151.721 125.86 149.976L111.751 142.971C109.16 143.415 106.504 143.659 103.786 143.659H94.7864L34.9746 83.8441L34.9688 83.8588C40.504 65.3529 58.5688 50.8117 79.8276 50.8117L105.083 50.2411C117.468 50.5788 128.65 55.737 136.822 63.9059C145.275 72.3617 150.504 84.0411 150.504 96.9412C150.504 112.309 143.083 125.941 131.633 134.453Z" fill="url(#paint1_linear_6634_11057)"/>
<path d="M147.314 113.931H36.2969C43.0931 131.332 60.0204 143.66 79.8284 143.66H103.787C106.504 143.66 109.162 143.415 111.752 142.97L125.86 149.978C129.367 151.72 133.404 148.862 132.926 144.975L131.632 134.454C138.617 129.261 144.097 122.163 147.314 113.931Z" fill="url(#paint2_linear_6634_11057)"/>
<path d="M42.4091 0.5H63.9009C87.0465 0.5 105.81 19.2632 105.81 42.4091C105.81 45.0862 105.559 47.7047 105.079 50.2421C101.411 69.6441 84.3694 84.0238 63.9009 84.0238H42.4088C39.9715 84.0238 37.5871 84.0982 35.2635 83.6988L22.6076 89.9853C19.4612 91.5482 15.8397 88.9841 16.2685 85.4974L17.4288 76.0597C7.15676 68.4221 0.5 56.1938 0.5 42.4091C0.5 19.2632 19.2632 0.5 42.4091 0.5V0.5Z" fill="url(#paint3_linear_6634_11057)"/>
<path d="M2.89062 56.3823C5.69327 64.3061 10.8083 71.1373 17.4289 76.0599L16.2686 85.4976C15.8397 88.9843 19.4615 91.5484 22.6077 89.9855L35.2636 83.6987C37.5868 84.0982 39.9715 84.0237 42.4086 84.0237H63.9006C82.1462 84.0237 97.3715 72.657 103.126 56.3823H2.89062Z" fill="url(#paint4_linear_6634_11057)"/>
<path d="M75.971 46.3366C80.494 46.3366 84.1607 42.6699 84.1607 38.1469C84.1607 33.6238 80.494 29.9572 75.971 29.9572C71.4479 29.9572 67.7812 33.6238 67.7812 38.1469C67.7812 42.6699 71.4479 46.3366 75.971 46.3366Z" fill="url(#paint5_linear_6634_11057)"/>
<path d="M53.1584 46.3366C57.6815 46.3366 61.3482 42.6699 61.3482 38.1469C61.3482 33.6238 57.6815 29.9572 53.1584 29.9572C48.6354 29.9572 44.9688 33.6238 44.9688 38.1469C44.9688 42.6699 48.6354 46.3366 53.1584 46.3366Z" fill="url(#paint6_linear_6634_11057)"/>
<path d="M30.3381 46.3366C34.8612 46.3366 38.5279 42.6699 38.5279 38.1469C38.5279 33.6238 34.8612 29.9572 30.3381 29.9572C25.8151 29.9572 22.1484 33.6238 22.1484 38.1469C22.1484 42.6699 25.8151 46.3366 30.3381 46.3366Z" fill="url(#paint7_linear_6634_11057)"/>
<path d="M114.619 107.625C119.142 107.625 122.809 103.958 122.809 99.4353C122.809 94.9123 119.142 91.2456 114.619 91.2456C110.096 91.2456 106.43 94.9123 106.43 99.4353C106.43 103.958 110.096 107.625 114.619 107.625Z" fill="url(#paint8_linear_6634_11057)"/>
<path d="M91.8069 107.625C96.33 107.625 99.9966 103.958 99.9966 99.4353C99.9966 94.9123 96.33 91.2456 91.8069 91.2456C87.2838 91.2456 83.6172 94.9123 83.6172 99.4353C83.6172 103.958 87.2838 107.625 91.8069 107.625Z" fill="url(#paint9_linear_6634_11057)"/>
<path d="M68.9866 107.625C73.5096 107.625 77.1763 103.958 77.1763 99.4353C77.1763 94.9123 73.5096 91.2456 68.9866 91.2456C64.4635 91.2456 60.7969 94.9123 60.7969 99.4353C60.7969 103.958 64.4635 107.625 68.9866 107.625Z" fill="url(#paint10_linear_6634_11057)"/>
<path d="M105.075 50.2424C104.645 50.2306 104.214 50.2239 103.781 50.2239H79.8232C58.5685 50.2239 40.6317 64.4189 34.9688 83.845L35.2632 83.6989C37.5864 84.0983 39.9711 84.318 42.4082 84.318H63.9002C84.3682 84.3177 101.406 69.6436 105.075 50.2424Z" fill="url(#paint11_linear_6634_11057)"/>
</g>
<defs>
<linearGradient id="paint0_linear_6634_11057" x1="91.8064" y1="65.8095" x2="91.8064" y2="127.752" gradientUnits="userSpaceOnUse">
<stop stop-color="#DC4955"/>
<stop offset="1" stop-color="#C4237C"/>
</linearGradient>
<linearGradient id="paint1_linear_6634_11057" x1="122.761" y1="110.749" x2="63.6738" y2="51.6609" gradientUnits="userSpaceOnUse">
<stop stop-color="#8A1958" stop-opacity="0"/>
<stop offset="1" stop-color="#8A1958"/>
</linearGradient>
<linearGradient id="paint2_linear_6634_11057" x1="91.8054" y1="120.024" x2="91.8054" y2="144.41" gradientUnits="userSpaceOnUse">
<stop stop-color="#8A1958" stop-opacity="0"/>
<stop offset="1" stop-color="#8A1958"/>
</linearGradient>
<linearGradient id="paint3_linear_6634_11057" x1="27.1479" y1="4.90735" x2="89.6862" y2="104.44" gradientUnits="userSpaceOnUse">
<stop stop-color="#76CCF8"/>
<stop offset="0.833" stop-color="#518EF8"/>
<stop offset="1" stop-color="#4981F8"/>
</linearGradient>
<linearGradient id="paint4_linear_6634_11057" x1="53.0083" y1="60.1079" x2="53.0083" y2="84.2326" gradientUnits="userSpaceOnUse">
<stop stop-color="#4071F7" stop-opacity="0"/>
<stop offset="1" stop-color="#30569F"/>
</linearGradient>
<linearGradient id="paint5_linear_6634_11057" x1="80.4974" y1="33.6204" x2="68.8716" y2="45.2463" gradientUnits="userSpaceOnUse">
<stop stop-color="#EEF4FF"/>
<stop offset="1" stop-color="#CFE7FD"/>
</linearGradient>
<linearGradient id="paint6_linear_6634_11057" x1="57.6849" y1="33.6204" x2="46.059" y2="45.2463" gradientUnits="userSpaceOnUse">
<stop stop-color="#EEF4FF"/>
<stop offset="1" stop-color="#CFE7FD"/>
</linearGradient>
<linearGradient id="paint7_linear_6634_11057" x1="34.8649" y1="33.6204" x2="23.239" y2="45.2463" gradientUnits="userSpaceOnUse">
<stop stop-color="#EEF4FF"/>
<stop offset="1" stop-color="#CFE7FD"/>
</linearGradient>
<linearGradient id="paint8_linear_6634_11057" x1="119.146" y1="94.9088" x2="107.52" y2="106.535" gradientUnits="userSpaceOnUse">
<stop stop-color="#EEF4FF"/>
<stop offset="1" stop-color="#CFE7FD"/>
</linearGradient>
<linearGradient id="paint9_linear_6634_11057" x1="96.3334" y1="94.9088" x2="84.7075" y2="106.535" gradientUnits="userSpaceOnUse">
<stop stop-color="#EEF4FF"/>
<stop offset="1" stop-color="#CFE7FD"/>
</linearGradient>
<linearGradient id="paint10_linear_6634_11057" x1="73.5131" y1="94.9088" x2="61.8872" y2="106.535" gradientUnits="userSpaceOnUse">
<stop stop-color="#EEF4FF"/>
<stop offset="1" stop-color="#CFE7FD"/>
</linearGradient>
<linearGradient id="paint11_linear_6634_11057" x1="70.0217" y1="58.5389" x2="70.0217" y2="89.2177" gradientUnits="userSpaceOnUse">
<stop stop-color="#9D66D6"/>
<stop offset="1" stop-color="#453D81"/>
</linearGradient>
<clipPath id="clip0_6634_11057">
<rect width="150" height="150" fill="white" transform="translate(0.5 0.5)"/>
</clipPath>
</defs>
</svg>
